<svg xmlns="http://www.w3.org/2000/svg" width="1800" height="1100" viewBox="0 0 1800 1100" role="img" aria-labelledby="title desc">
  <title id="title">標的型攻撃メール訓練の管理画面</title>
  <desc id="desc">訓練メール、警告、クリック集計、レポートを表したダッシュボード風のビジュアル。</desc>
  <defs>
    <linearGradient id="bg" x1="0" x2="1" y1="0" y2="1">
      <stop offset="0" stop-color="#071a33"/>
      <stop offset="0.55" stop-color="#0b2d62"/>
      <stop offset="1" stop-color="#123f82"/>
    </linearGradient>
    <linearGradient id="panel" x1="0" x2="1" y1="0" y2="1">
      <stop offset="0" stop-color="#ffffff" stop-opacity="0.96"/>
      <stop offset="1" stop-color="#e9f2ff" stop-opacity="0.92"/>
    </linearGradient>
    <filter id="shadow" x="-20%" y="-20%" width="140%" height="140%">
      <feDropShadow dx="0" dy="24" stdDeviation="24" flood-color="#020a14" flood-opacity="0.35"/>
    </filter>
  </defs>
  <rect width="1800" height="1100" fill="url(#bg)"/>
  <path d="M0 840C270 742 455 803 706 714C982 616 1166 395 1800 424V1100H0Z" fill="#0c2550" opacity="0.72"/>
  <path d="M106 214H1693" stroke="#ffffff" stroke-opacity="0.09"/>
  <path d="M106 374H1693" stroke="#ffffff" stroke-opacity="0.08"/>
  <path d="M106 534H1693" stroke="#ffffff" stroke-opacity="0.08"/>
  <path d="M106 694H1693" stroke="#ffffff" stroke-opacity="0.08"/>
  <path d="M106 854H1693" stroke="#ffffff" stroke-opacity="0.08"/>
  <path d="M382 80V1020" stroke="#ffffff" stroke-opacity="0.07"/>
  <path d="M650 80V1020" stroke="#ffffff" stroke-opacity="0.07"/>
  <path d="M918 80V1020" stroke="#ffffff" stroke-opacity="0.07"/>
  <path d="M1186 80V1020" stroke="#ffffff" stroke-opacity="0.07"/>
  <path d="M1454 80V1020" stroke="#ffffff" stroke-opacity="0.07"/>

  <g filter="url(#shadow)" transform="translate(760 136)">
    <rect width="760" height="556" rx="18" fill="url(#panel)"/>
    <rect x="0" y="0" width="760" height="74" rx="18" fill="#06172d"/>
    <rect x="0" y="56" width="760" height="18" fill="#06172d"/>
    <circle cx="38" cy="36" r="8" fill="#e33b3b"/>
    <circle cx="64" cy="36" r="8" fill="#ffd64a"/>
    <circle cx="90" cy="36" r="8" fill="#168a5b"/>
    <text x="130" y="43" fill="#ffffff" font-family="Arial, 'Hiragino Kaku Gothic ProN', sans-serif" font-size="24" font-weight="700">Training Mail Console</text>

    <rect x="36" y="112" width="308" height="372" rx="12" fill="#ffffff" stroke="#dce4ef"/>
    <text x="62" y="154" fill="#06172d" font-family="Arial, 'Hiragino Kaku Gothic ProN', sans-serif" font-size="22" font-weight="700">訓練メール</text>
    <rect x="62" y="178" width="238" height="16" rx="8" fill="#dce4ef"/>
    <rect x="62" y="212" width="210" height="14" rx="7" fill="#e9f2ff"/>
    <rect x="62" y="242" width="246" height="14" rx="7" fill="#e9f2ff"/>
    <rect x="62" y="272" width="164" height="14" rx="7" fill="#e9f2ff"/>
    <rect x="62" y="326" width="176" height="44" rx="8" fill="#1256c4"/>
    <text x="86" y="355" fill="#ffffff" font-family="Arial, 'Hiragino Kaku Gothic ProN', sans-serif" font-size="18" font-weight="700">リンク確認</text>
    <path d="M62 421H310" stroke="#dce4ef" stroke-width="2"/>
    <rect x="62" y="442" width="116" height="16" rx="8" fill="#ffd64a"/>

    <rect x="378" y="112" width="330" height="166" rx="12" fill="#fff7df" stroke="#ffd64a"/>
    <path d="M424 225L543 153L662 225H424Z" fill="#ffd64a"/>
    <path d="M543 172V205" stroke="#06172d" stroke-width="12" stroke-linecap="round"/>
    <path d="M543 234H543.5" stroke="#06172d" stroke-width="13" stroke-linecap="round"/>
    <text x="414" y="148" fill="#06172d" font-family="Arial, 'Hiragino Kaku Gothic ProN', sans-serif" font-size="20" font-weight="700">クリック検知</text>

    <rect x="378" y="310" width="330" height="174" rx="12" fill="#ffffff" stroke="#dce4ef"/>
    <text x="414" y="352" fill="#06172d" font-family="Arial, 'Hiragino Kaku Gothic ProN', sans-serif" font-size="20" font-weight="700">レポート集計</text>
    <rect x="414" y="382" width="228" height="14" rx="7" fill="#dce4ef"/>
    <rect x="414" y="420" width="238" height="18" rx="9" fill="#edf2f7"/>
    <rect x="414" y="420" width="142" height="18" rx="9" fill="#1256c4"/>
    <rect x="414" y="454" width="238" height="18" rx="9" fill="#edf2f7"/>
    <rect x="414" y="454" width="82" height="18" rx="9" fill="#e33b3b"/>
  </g>

  <g filter="url(#shadow)" transform="translate(1038 736)">
    <rect width="450" height="170" rx="16" fill="#06172d"/>
    <rect x="28" y="28" width="74" height="74" rx="14" fill="#ffd64a"/>
    <path d="M48 67L61 80L85 50" fill="none" stroke="#06172d" stroke-width="8" stroke-linecap="round" stroke-linejoin="round"/>
    <text x="124" y="62" fill="#ffffff" font-family="Arial, 'Hiragino Kaku Gothic ProN', sans-serif" font-size="28" font-weight="700">ユーザ数無制限</text>
    <text x="124" y="108" fill="#ffd64a" font-family="Arial, 'Hiragino Kaku Gothic ProN', sans-serif" font-size="34" font-weight="800">40,000円 / 1回</text>
  </g>

  <g transform="translate(1508 166)" opacity="0.92">
    <path d="M108 0L216 48V134C216 205 172 267 108 304C44 267 0 205 0 134V48L108 0Z" fill="#ffd64a"/>
    <path d="M63 145L96 178L157 93" fill="none" stroke="#06172d" stroke-width="18" stroke-linecap="round" stroke-linejoin="round"/>
  </g>
</svg>
